Coordinates
version=1
nRows=14
nColumns=24
inDegrees=yes

Units are S.I. units (second, meters, Newtons, ...)
Angles are in degrees.

endheader
time	pelvis_tilt	pelvis_list	pelvis_rotation	pelvis_tx	pelvis_ty	pelvis_tz	hip_flexion_r	hip_adduction_r	hip_rotation_r	knee_angle_r	ankle_angle_r	subtalar_angle_r	mtp_angle_r	hip_flexion_l	hip_adduction_l	hip_rotation_l	knee_angle_l	ankle_angle_l	subtalar_angle_l	mtp_angle_l	lumbar_extension	lumbar_bending	lumbar_rotation
      1.07883333	      3.28179134	      0.39345050	      0.62538983	      0.51721502	      1.02658821	      0.27825518	      3.18538659	      5.66262806	      3.97048983	    -12.84880971	      4.63926257	    -16.76964485	      7.26144827	     10.13117856	     -1.14374753	     -4.19290461	    -63.13671345	      5.84241515	     -8.72394271	      2.71689891	     -3.09992331	      0.91320020	      4.18471021
      1.08300000	      3.28720680	      0.43741540	      0.26566248	      0.52184592	      1.02697968	      0.27889583	      2.76385700	      5.61921889	      4.21253489	    -12.57948645	      4.73294391	    -16.59886831	      7.37118134	     10.58223069	     -1.12589696	     -4.47095479	    -62.72682257	      6.01048378	     -8.67146214	      2.69709986	     -3.11837815	      0.84791013	      4.45613048
      1.08716667	      3.33169034	      0.48746164	     -0.08907639	      0.52645664	      1.02741028	      0.27952173	      2.29934590	      5.56378870	      4.45524017	    -12.30831123	      4.83599624	    -16.43124517	      7.47343982	     10.97882752	     -1.10156027	     -4.74310448	    -62.27649983	      6.15867135	     -8.64116363	      2.67694207	     -3.18510653	      0.77334409	      4.69446878
      1.09133333	      3.31443345	      0.53316105	     -0.43932085	      0.53104290	      1.02771608	      0.28013649	      1.91521265	      5.50924968	      4.69760415	    -12.05951788	      4.90601489	    -16.25597511	      7.51982709	     11.44272190	     -1.08679556	     -5.01395906	    -61.81037780	      6.29168358	     -8.64312611	      2.66774194	     -3.18630928	      0.70373215	      4.80308675
      1.09550000	      3.35065222	      0.56496129	     -0.78266579	      0.53562813	      1.02806723	      0.28075498	      1.46379423	      5.46721713	      4.94525388	    -11.79484194	      5.03382796	    -16.11181711	      7.62534835	     11.83658519	     -1.09356412	     -5.27801357	    -61.31395761	      6.42698975	     -8.60598908	      2.64258006	     -3.23964817	      0.64950288	      5.17090893
      1.09966667	      3.32656647	      0.60686295	     -1.11823917	      0.54018305	      1.02830980	      0.28133791	      1.09198995	      5.40880656	      5.18504057	    -11.55209979	      5.10566963	    -15.94462475	      7.66540572	     12.29526969	     -1.08446663	     -5.52677749	    -60.79606097	      6.53368949	     -8.62792684	      2.63227258	     -3.23464747	      0.57746348	      5.25310503
      1.10383333	      3.36191821	      0.64356204	     -1.45651203	      0.54473348	      1.02861148	      0.28193260	      0.65363567	      5.35242937	      5.42837529	    -11.30840159	      5.23948278	    -15.80333031	      7.76906600	     12.67218111	     -1.08753291	     -5.78244351	    -60.23868830	      6.62664134	     -8.63348560	      2.60099029	     -3.28665587	      0.51876109	      5.60860153
      1.10800000	      3.33532580	      0.66168321	     -1.77493013	      0.54925791	      1.02878780	      0.28248657	      0.28680869	      5.31266754	      5.66635954	    -11.06754419	      5.31011258	    -15.64191700	      7.80685388	     13.12345374	     -1.11289608	     -6.01607990	    -59.68243917	      6.71749790	     -8.65195452	      2.58896680	     -3.28012871	      0.47388806	      5.67935376
      1.11216667	      3.35369217	      0.70231593	     -2.11659913	      0.55378803	      1.02901971	      0.28306662	     -0.11550065	      5.24397812	      5.91318186	    -10.85870693	      5.42756643	    -15.51189125	      7.86538970	     13.49755967	     -1.11956601	     -6.27973757	    -59.06561639	      6.77926776	     -8.66437633	      2.56728053	     -3.30658838	      0.41809371	      5.89386892
      1.11633333	      3.36030385	      0.72348993	     -2.41776600	      0.55829796	      1.02919528	      0.28359184	     -0.52114982	      5.19282715	      6.15022914	    -10.61418733	      5.54446816	    -15.37160311	      7.95585843	     13.89199709	     -1.13863033	     -6.48766849	    -58.44898072	      6.84188119	     -8.68080184	      2.52998350	     -3.34181151	      0.36756086	      6.19045083
      1.12050000	      3.34723242	      0.73563082	     -2.72369959	      0.56279668	      1.02930955	      0.28410683	     -0.89382024	      5.14878782	      6.38986707	    -10.39302631	      5.64476848	    -15.23785654	      8.04144466	     14.29916277	     -1.17363038	     -6.70319259	    -57.81338588	      6.89912747	     -8.69099241	      2.49028966	     -3.34712507	      0.33445029	      6.37095324
      1.12466667	      3.32473584	      0.75109095	     -3.01584781	      0.56728723	      1.02939992	      0.28460367	     -1.25586705	      5.09741214	      6.61462195	    -10.16852712	      5.72094385	    -15.08001537	      8.07133448	     14.71046368	     -1.20400127	     -6.90145259	    -57.15443467	      6.94330642	     -8.70286927	      2.47554395	     -3.34678824	      0.29006620	      6.42313295
      1.12883333	      3.34344910	      0.77410452	     -3.32179905	      0.57176819	      1.02952155	      0.28509864	     -1.65234230	      5.03110096	      6.84752938	     -9.96799108	      5.85590773	    -14.95075755	      8.14395384	     15.05539819	     -1.22377103	     -7.10717020	    -56.44979497	      6.96253174	     -8.71252390	      2.43400164	     -3.38675078	      0.24966403	      6.69197421
      1.13300000	      3.30619665	      0.76892455	     -3.59814885	      0.57624003	      1.02952372	      0.28554887	     -1.99443320	      4.99642680	      7.06644891	     -9.75174290	      5.93309595	    -14.79896003	      8.16935000	     15.47078425	     -1.27616678	     -7.28085216	    -55.76131025	      6.99751249	     -8.70810236	      2.41900705	     -3.37291948	      0.23207387	      6.73938814
